# xmcd
#
# Track frame offsets:
#	150
#	19891
#	33761
#	55487
#	69513
#	88114
#	112937
#	129044
#	144324
#	162668
#	176910
#	207010
#	222582
#	240415
#
# Disc length: 3378
#
# Revision: 1
# Processed by: cddbd v1.5.1PL0 Copyright (c) Steve Scherf et al.
# Submitted via: CDex 1.51
# Normalized: r0:DSETVAR1,TDELIM( - )
#
DISCID=c20d300e
DTITLE=Various Artist - JAZZ A SAINT GERMAIN
DYEAR=1900
DGENRE=Jazz
TTITLE0=ANGELIQUE KIDJO - Summertime
TTITLE1=CATHERINE RINER AND THE RENEGADE BRASS BAND - Les Joyeux Bouchers
TTITLE2=CHINA - Lover Man
TTITLE3=DEE DEE BRIDGEWATER - Watermelon Man
TTITLE4=FRANCOISE HARDY AND IGGY POP - I'll Be Seeing You
TTITLE5=THE JAZZ PASSENGERS WITH DEBORAH HARRY - Il N'Y A Plus D' Apres
TTITLE6=JACKY TERRASSON - La Javanaise
TTITLE7=PATRICIA KAAS - Black Coffee
TTITLE8=PRINCESS ERIKA - God Bleess The Child
TTITLE9=LES NUBIANS - Autour De Minuit
TTITLE10=JANE BIRKIN WITH JIMMY ROWLES - These Foolish Things
TTITLE11=BRIGITE FONTAINE - La Caravane
TTITLE12=ELLI MEDEIROW - Sophisticated Lady
TTITLE13=BORIS VIAN - J'Suis Snob (Unreleased)
EXTD=
EXTT0=
EXTT1=
EXTT2=
EXTT3=
EXTT4=
EXTT5=
EXTT6=
EXTT7=
EXTT8=
EXTT9=
EXTT10=
EXTT11=
EXTT12=
EXTT13=
PLAYORDER=
